<svg id="Calque_1" data-name="Calque 1" xmlns="http://www.w3.org/2000/svg" viewBox="0 0 627.03 608.7"><defs><style>.cls-1,.cls-5{fill:none;stroke-width:20px;}.cls-1,.cls-3{stroke:#2bb4ff;}.cls-1,.cls-3,.cls-5{stroke-miterlimit:10;}.cls-2{fill:#dadada;}.cls-3{fill:#2bb4ff;}.cls-4{fill:#fff;}.cls-5{stroke:#dadada;}</style></defs><path class="cls-1" d="M147.86,386.77c0,50,40.3,90.53,90.09,90.53"/><path class="cls-2" d="M529.36,580.25H317.62a62.93,62.93,0,0,1-62.93-62.93V305.58a62.93,62.93,0,0,1,62.93-62.93H529.36a62.93,62.93,0,0,1,62.93,62.93V517.32A62.92,62.92,0,0,1,529.36,580.25Z"/><circle class="cls-3" cx="466.94" cy="319.68" r="33.07"/><circle class="cls-3" cx="466.94" cy="411.47" r="33.07"/><circle class="cls-3" cx="380.04" cy="411.47" r="33.07"/><circle class="cls-3" cx="380.04" cy="503.26" r="33.07"/><path class="cls-3" d="M298.46,365.06H128.71a83.92,83.92,0,0,1-83.92-83.92V111.39a83.92,83.92,0,0,1,83.92-83.92H298.46a83.92,83.92,0,0,1,83.92,83.92V281.14A83.92,83.92,0,0,1,298.46,365.06Z"/><path class="cls-4" d="M306.64,94.4c0,15.55,0,31.1,0,46.66,0,1.9-.32,2.55-2.44,2.54-19.86-.1-39.73,0-59.59-.11-2,0-2.39.49-2.39,2.41q.09,86.13.1,172.25c0,2.23-.52,2.75-2.74,2.73q-26.15-.15-52.28,0c-1.81,0-2.29-.38-2.29-2.25q.09-86.13.1-172.25c0-2.25-.48-2.91-2.84-2.9-19.79.11-39.58,0-59.37.12-2.11,0-2.44-.65-2.44-2.54.07-15.55,0-31.1,0-46.66Z"/><path class="cls-5" d="M491,227.2c0-44.36-40.53-80.26-90.61-80.26"/></svg>