<svg xmlns="http://www.w3.org/2000/svg" viewBox="0 0 500 500"><g id="freepik--background-simple--inject-15"><path d="M470.44,221.23c2.3-30.65-4.83-62.66-14.38-91.2-14.19-42.38-41.74-85.85-88.13-95.88-26.75-5.79-54,.41-76.91,14.91C269,63,251.76,81,224.65,84.49,197.23,88,169.08,86.6,141.51,86.6c-70.89,0-128.42,74.47-114,152S109.66,370,167.19,370c51.7,0,94.23-31,143.33-39.34,24.35-4.13,48.8.76,72.89-5.43,28-7.19,54.35-24.36,69.86-49.21C463.85,259.09,469,240.43,470.44,221.23Z" style="fill:#2BB4FF"></path><path d="M470.44,221.23c2.3-30.65-4.83-62.66-14.38-91.2-14.19-42.38-41.74-85.85-88.13-95.88-26.75-5.79-54,.41-76.91,14.91C269,63,251.76,81,224.65,84.49,197.23,88,169.08,86.6,141.51,86.6c-70.89,0-128.42,74.47-114,152S109.66,370,167.19,370c51.7,0,94.23-31,143.33-39.34,24.35-4.13,48.8.76,72.89-5.43,28-7.19,54.35-24.36,69.86-49.21C463.85,259.09,469,240.43,470.44,221.23Z" style="fill:#fff;opacity:0.7000000000000001"></path></g><g id="freepik--Building--inject-15"><rect x="77.98" y="119.24" width="341.59" height="279.82" style="fill:gray;stroke:#263238;stroke-linecap:round;stroke-linejoin:round"></rect><rect x="77.98" y="119.24" width="341.59" height="5.5" style="fill:#263238;stroke:#263238;stroke-linecap:round;stroke-linejoin:round"></rect><rect x="104.26" y="103.19" width="33.73" height="13.61" style="fill:#263238;stroke:#263238;stroke-linecap:round;stroke-linejoin:round"></rect><rect x="171.12" y="102" width="4.73" height="14.79" style="fill:#263238;stroke:#263238;stroke-linecap:round;stroke-linejoin:round"></rect><rect x="73.82" y="110.67" width="349.91" height="10.98" style="fill:#fff;stroke:#263238;stroke-linecap:round;stroke-linejoin:round"></rect><rect x="98.9" y="144.04" width="45.92" height="61.88" style="fill:#263238;stroke:#263238;stroke-linecap:round;stroke-linejoin:round"></rect><rect x="122.68" y="147.36" width="5.24" height="14.37" style="fill:#fff;stroke:#263238;stroke-linecap:round;stroke-linejoin:round"></rect><rect x="115.79" y="147.36" width="5.24" height="14.37" style="fill:#fff;stroke:#263238;stroke-linecap:round;stroke-linejoin:round"></rect><rect x="136.47" y="147.36" width="5.44" height="14.37" style="fill:#fff;stroke:#263238;stroke-linecap:round;stroke-linejoin:round"></rect><rect x="108.9" y="147.36" width="5.24" height="14.37" style="fill:#fff;stroke:#263238;stroke-linecap:round;stroke-linejoin:round"></rect><rect x="129.58" y="147.36" width="5.24" height="14.37" style="fill:#fff;stroke:#263238;stroke-linecap:round;stroke-linejoin:round"></rect><rect x="124.47" y="165.59" width="17.44" height="37.02" style="fill:#fff;stroke:#263238;stroke-linecap:round;stroke-linejoin:round"></rect><rect x="101.8" y="147.36" width="5.44" height="14.37" style="fill:#fff;stroke:#263238;stroke-linecap:round;stroke-linejoin:round"></rect><rect x="101.8" y="165.59" width="17.44" height="37.02" style="fill:#fff;stroke:#263238;stroke-linecap:round;stroke-linejoin:round"></rect><line x1="106.25" y1="185.4" x2="103.95" y2="187.25" style="fill:#fff;stroke:#263238;stroke-linecap:round;stroke-linejoin:round"></line><line x1="119.34" y1="174.83" x2="109.11" y2="183.09" style="fill:#fff;stroke:#263238;stroke-linecap:round;stroke-linejoin:round"></line><line x1="128.16" y1="185.4" x2="125.87" y2="187.25" style="fill:#fff;stroke:#263238;stroke-linecap:round;stroke-linejoin:round"></line><line x1="141.25" y1="174.83" x2="131.03" y2="183.09" style="fill:#fff;stroke:#263238;stroke-linecap:round;stroke-linejoin:round"></line><rect x="222.75" y="144.04" width="45.92" height="61.88" style="fill:#263238;stroke:#263238;stroke-linecap:round;stroke-linejoin:round"></rect><rect x="246.53" y="147.36" width="5.24" height="14.37" style="fill:#fff;stroke:#263238;stroke-linecap:round;stroke-linejoin:round"></rect><rect x="239.64" y="147.36" width="5.24" height="14.37" style="fill:#fff;stroke:#263238;stroke-linecap:round;stroke-linejoin:round"></rect><rect x="260.32" y="147.36" width="5.44" height="14.37" style="fill:#fff;stroke:#263238;stroke-linecap:round;stroke-linejoin:round"></rect><rect x="232.75" y="147.36" width="5.24" height="14.37" style="fill:#fff;stroke:#263238;stroke-linecap:round;stroke-linejoin:round"></rect><rect x="253.42" y="147.36" width="5.24" height="14.37" style="fill:#fff;stroke:#263238;stroke-linecap:round;stroke-linejoin:round"></rect><rect x="248.32" y="165.59" width="17.44" height="37.02" style="fill:#fff;stroke:#263238;stroke-linecap:round;stroke-linejoin:round"></rect><rect x="225.65" y="147.36" width="5.44" height="14.37" style="fill:#fff;stroke:#263238;stroke-linecap:round;stroke-linejoin:round"></rect><rect x="225.65" y="165.59" width="17.44" height="37.02" style="fill:#fff;stroke:#263238;stroke-linecap:round;stroke-linejoin:round"></rect><line x1="229.61" y1="185.4" x2="227.31" y2="187.25" style="fill:#fff;stroke:#263238;stroke-linecap:round;stroke-linejoin:round"></line><line x1="242.69" y1="174.83" x2="232.47" y2="183.09" style="fill:#fff;stroke:#263238;stroke-linecap:round;stroke-linejoin:round"></line><line x1="252.08" y1="185.4" x2="249.78" y2="187.25" style="fill:#fff;stroke:#263238;stroke-linecap:round;stroke-linejoin:round"></line><line x1="265.17" y1="174.83" x2="254.94" y2="183.09" style="fill:#fff;stroke:#263238;stroke-linecap:round;stroke-linejoin:round"></line><rect x="347.34" y="144.04" width="45.92" height="61.88" style="fill:#263238;stroke:#263238;stroke-linecap:round;stroke-linejoin:round"></rect><rect x="371.13" y="147.36" width="5.24" height="14.37" style="fill:#fff;stroke:#263238;stroke-linecap:round;stroke-linejoin:round"></rect><rect x="364.24" y="147.36" width="5.24" height="14.37" style="fill:#fff;stroke:#263238;stroke-linecap:round;stroke-linejoin:round"></rect><rect x="384.91" y="147.36" width="5.44" height="14.37" style="fill:#fff;stroke:#263238;stroke-linecap:round;stroke-linejoin:round"></rect><rect x="357.35" y="147.36" width="5.24" height="14.37" style="fill:#fff;stroke:#263238;stroke-linecap:round;stroke-linejoin:round"></rect><rect x="378.02" y="147.36" width="5.24" height="14.37" style="fill:#fff;stroke:#263238;stroke-linecap:round;stroke-linejoin:round"></rect><rect x="372.92" y="165.59" width="17.44" height="37.02" style="fill:#fff;stroke:#263238;stroke-linecap:round;stroke-linejoin:round"></rect><rect x="350.25" y="147.36" width="5.44" height="14.37" style="fill:#fff;stroke:#263238;stroke-linecap:round;stroke-linejoin:round"></rect><rect x="350.25" y="165.59" width="17.44" height="37.02" style="fill:#fff;stroke:#263238;stroke-linecap:round;stroke-linejoin:round"></rect><line x1="355.37" y1="185.4" x2="353.08" y2="187.25" style="fill:#fff;stroke:#263238;stroke-linecap:round;stroke-linejoin:round"></line><line x1="368.46" y1="174.83" x2="358.24" y2="183.09" style="fill:#fff;stroke:#263238;stroke-linecap:round;stroke-linejoin:round"></line><line x1="377.85" y1="185.4" x2="375.55" y2="187.25" style="fill:#fff;stroke:#263238;stroke-linecap:round;stroke-linejoin:round"></line><line x1="390.93" y1="174.83" x2="380.71" y2="183.09" style="fill:#fff;stroke:#263238;stroke-linecap:round;stroke-linejoin:round"></line><rect x="78.09" y="219" width="341.58" height="235.69" style="fill:#263238;stroke:#263238;stroke-linecap:round;stroke-linejoin:round"></rect><rect x="209.31" y="321.73" width="72.95" height="132.96" style="fill:#2BB4FF;stroke:#263238;stroke-linecap:round;stroke-linejoin:round"></rect><rect x="213.93" y="328.19" width="0.18" height="69.25" style="fill:none"></rect><polygon points="276.37 406.23 276.39 406.23 276.37 406.23 276.37 414.73 276.39 414.73 276.37 414.73 276.37 423.23 276.39 423.23 276.37 423.23 276.37 431.73 276.39 431.73 276.37 431.73 276.37 440.23 276.39 440.23 276.37 440.23 276.37 447.31 276.48 447.31 276.48 404.83 276.37 404.83 276.37 406.23" style="fill:none"></polygon><rect x="213.93" y="404.83" width="0.18" height="42.47" style="fill:none"></rect><polygon points="276.37 328.19 276.37 329.73 276.39 329.73 276.37 329.73 276.37 338.23 276.39 338.23 276.37 338.23 276.37 346.73 276.39 346.73 276.37 346.73 276.37 355.23 276.39 355.23 276.37 355.23 276.37 363.73 276.39 363.73 276.37 363.73 276.37 372.23 276.39 372.23 276.37 372.23 276.37 380.73 276.39 380.73 276.37 380.73 276.37 389.23 276.39 389.23 276.37 389.23 276.37 397.44 276.48 397.44 276.48 328.19 276.37 328.19" style="fill:none"></polygon><polygon points="214.29 440.23 276.37 440.23 276.37 431.73 214.29 431.73 276.37 431.73 276.37 423.23 214.29 423.23 276.37 423.23 276.37 414.73 214.29 414.73 276.37 414.73 276.37 406.23 214.29 406.23 276.37 406.23 276.37 404.83 214.11 404.83 214.11 447.31 276.37 447.31 276.37 440.23 214.29 440.23" style="fill:#d6d6d6;stroke:#263238;stroke-linecap:round;stroke-linejoin:round;stroke-width:0.7717554902953019px"></polygon><polygon points="214.29 389.23 276.37 389.23 276.37 380.73 214.29 380.73 276.37 380.73 276.37 372.23 214.29 372.23 276.37 372.23 276.37 363.73 214.29 363.73 276.37 363.73 276.37 355.23 214.29 355.23 276.37 355.23 276.37 346.73 214.29 346.73 276.37 346.73 276.37 338.23 214.29 338.23 276.37 338.23 276.37 329.73 214.29 329.73 276.37 329.73 276.37 328.19 214.11 328.19 214.11 397.44 276.37 397.44 276.37 389.23 214.29 389.23" style="fill:#d6d6d6;stroke:#263238;stroke-linecap:round;stroke-linejoin:round;stroke-width:0.7717554902953019px"></polygon><rect x="277.9" y="381.16" width="2.28" height="24.29" style="fill:#263238;stroke:#263238;stroke-linecap:round;stroke-linejoin:round"></rect><polyline points="236.15 370.28 244.91 359.15 254.35 370.61" style="fill:none;stroke:#263238;stroke-linecap:round;stroke-linejoin:round"></polyline><rect x="230.42" y="368.59" width="28.31" height="14.83" style="fill:#fff;stroke:#263238;stroke-linecap:round;stroke-linejoin:round"></rect><path d="M236,379.44a1.54,1.54,0,0,1-1.31.56,1.56,1.56,0,0,1-1.34-.6,2.89,2.89,0,0,1-.44-1.72v-3.52c0-1.2.31-2,.94-2.25a2,2,0,0,1,.85-.17c1.13,0,1.7.72,1.7,2.15V375h-1.19v-1a2.4,2.4,0,0,0-.11-.89.4.4,0,0,0-.41-.27.41.41,0,0,0-.42.28,2.37,2.37,0,0,0-.12.87v3.77a2.67,2.67,0,0,0,.11.94.43.43,0,0,0,.42.28.43.43,0,0,0,.42-.29,2.94,2.94,0,0,0,.11-.94v-1.15h1.21v1.14A2.9,2.9,0,0,1,236,379.44Z" style="fill:#263238"></path><path d="M237.46,379.91v-8.07h1.23v7h1.55v1.05Z" style="fill:#263238"></path><path d="M244,379.42a1.55,1.55,0,0,1-1.35.58,1.58,1.58,0,0,1-1.36-.58,3,3,0,0,1-.44-1.77V374c0-1.48.61-2.22,1.82-2.22a1.55,1.55,0,0,1,1.34.56,2.77,2.77,0,0,1,.41,1.66v3.69A3,3,0,0,1,244,379.42Zm-1.8-.76a.43.43,0,0,0,.44.28.42.42,0,0,0,.44-.29,3.14,3.14,0,0,0,.11-1V373.9a2.35,2.35,0,0,0-.11-.83.41.41,0,0,0-.42-.27.44.44,0,0,0-.44.27,2.07,2.07,0,0,0-.13.83v3.77A3.18,3.18,0,0,0,242.15,378.66Z" style="fill:#263238"></path><path d="M245.33,377.64v-.72h1.16v.81a2.61,2.61,0,0,0,.12.95.42.42,0,0,0,.43.27.41.41,0,0,0,.42-.22,1.92,1.92,0,0,0,.1-.74,2.08,2.08,0,0,0-.18-.89,3.36,3.36,0,0,0-.58-.79l-.6-.61a3.4,3.4,0,0,1-.65-.91,2.45,2.45,0,0,1-.23-1.08,2.4,2.4,0,0,1,.38-1.48,1.59,1.59,0,0,1,1.33-.49,1.34,1.34,0,0,1,1.27.57,3.31,3.31,0,0,1,.33,1.65v.5H247.5v-.58a2.43,2.43,0,0,0-.1-.84.39.39,0,0,0-.39-.26.45.45,0,0,0-.41.2,1.11,1.11,0,0,0-.13.58,1.32,1.32,0,0,0,.13.61,3.47,3.47,0,0,0,.47.59l.66.72a4.31,4.31,0,0,1,.76,1.09,2.9,2.9,0,0,1,.25,1.22,3,3,0,0,1-.38,1.67A1.51,1.51,0,0,1,247,380a1.44,1.44,0,0,1-1.33-.6A3.39,3.39,0,0,1,245.33,377.64Z" style="fill:#263238"></path><path d="M249.64,379.91v-8.07h2.71v1.06h-1.48v2.34h1.4v1h-1.4v2.57h1.53v1.06Z" style="fill:#263238"></path><path d="M253.38,379.91v-8.07h1.81a1.52,1.52,0,0,1,1.29.52,2.52,2.52,0,0,1,.4,1.55v3.64a3.13,3.13,0,0,1-.41,1.79,1.51,1.51,0,0,1-1.33.57Zm1.23-1h.4a.54.54,0,0,0,.49-.22,1.39,1.39,0,0,0,.16-.8v-4a1.89,1.89,0,0,0-.15-.89.56.56,0,0,0-.53-.27h-.36Z" style="fill:#263238"></path><rect x="302.5" y="321.85" width="110.35" height="132.84" style="fill:#d6d6d6;stroke:#263238;stroke-linecap:round;stroke-linejoin:round"></rect><line x1="302.83" y1="448.88" x2="412.9" y2="448.88" style="fill:#fff;stroke:#263238;stroke-linecap:round;stroke-linejoin:round"></line><line x1="302.83" y1="440.38" x2="412.9" y2="440.38" style="fill:#fff;stroke:#263238;stroke-linecap:round;stroke-linejoin:round"></line><line x1="302.83" y1="431.88" x2="412.9" y2="431.88" style="fill:#fff;stroke:#263238;stroke-linecap:round;stroke-linejoin:round"></line><line x1="302.83" y1="423.38" x2="412.9" y2="423.38" style="fill:#fff;stroke:#263238;stroke-linecap:round;stroke-linejoin:round"></line><line x1="302.83" y1="414.88" x2="412.9" y2="414.88" style="fill:#fff;stroke:#263238;stroke-linecap:round;stroke-linejoin:round"></line><line x1="302.83" y1="406.38" x2="412.9" y2="406.38" style="fill:#fff;stroke:#263238;stroke-linecap:round;stroke-linejoin:round"></line><line x1="302.83" y1="397.88" x2="412.9" y2="397.88" style="fill:#fff;stroke:#263238;stroke-linecap:round;stroke-linejoin:round"></line><line x1="302.83" y1="389.38" x2="412.9" y2="389.38" style="fill:#fff;stroke:#263238;stroke-linecap:round;stroke-linejoin:round"></line><line x1="302.83" y1="380.88" x2="412.9" y2="380.88" style="fill:#fff;stroke:#263238;stroke-linecap:round;stroke-linejoin:round"></line><line x1="302.83" y1="372.38" x2="412.9" y2="372.38" style="fill:#fff;stroke:#263238;stroke-linecap:round;stroke-linejoin:round"></line><line x1="302.83" y1="363.88" x2="412.9" y2="363.88" style="fill:#fff;stroke:#263238;stroke-linecap:round;stroke-linejoin:round"></line><line x1="302.83" y1="355.38" x2="412.9" y2="355.38" style="fill:#fff;stroke:#263238;stroke-linecap:round;stroke-linejoin:round"></line><line x1="302.83" y1="346.88" x2="412.9" y2="346.88" style="fill:#fff;stroke:#263238;stroke-linecap:round;stroke-linejoin:round"></line><line x1="302.83" y1="338.38" x2="412.9" y2="338.38" style="fill:#fff;stroke:#263238;stroke-linecap:round;stroke-linejoin:round"></line><line x1="302.83" y1="329.88" x2="412.9" y2="329.88" style="fill:#fff;stroke:#263238;stroke-linecap:round;stroke-linejoin:round"></line><rect x="86.24" y="321.85" width="104.53" height="132.84" style="fill:#d6d6d6;stroke:#263238;stroke-linecap:round;stroke-linejoin:round"></rect><line x1="86.55" y1="448.88" x2="190.81" y2="448.88" style="fill:#fff;stroke:#263238;stroke-linecap:round;stroke-linejoin:round"></line><line x1="86.55" y1="440.38" x2="190.81" y2="440.38" style="fill:#fff;stroke:#263238;stroke-linecap:round;stroke-linejoin:round"></line><line x1="86.55" y1="431.88" x2="190.81" y2="431.88" style="fill:#fff;stroke:#263238;stroke-linecap:round;stroke-linejoin:round"></line><line x1="86.55" y1="423.38" x2="190.81" y2="423.38" style="fill:#fff;stroke:#263238;stroke-linecap:round;stroke-linejoin:round"></line><line x1="86.55" y1="414.88" x2="190.81" y2="414.88" style="fill:#fff;stroke:#263238;stroke-linecap:round;stroke-linejoin:round"></line><line x1="86.55" y1="406.38" x2="190.81" y2="406.38" style="fill:#fff;stroke:#263238;stroke-linecap:round;stroke-linejoin:round"></line><line x1="86.55" y1="397.88" x2="190.81" y2="397.88" style="fill:#fff;stroke:#263238;stroke-linecap:round;stroke-linejoin:round"></line><line x1="86.55" y1="389.38" x2="190.81" y2="389.38" style="fill:#fff;stroke:#263238;stroke-linecap:round;stroke-linejoin:round"></line><line x1="86.55" y1="380.88" x2="190.81" y2="380.88" style="fill:#fff;stroke:#263238;stroke-linecap:round;stroke-linejoin:round"></line><line x1="86.55" y1="372.38" x2="190.81" y2="372.38" style="fill:#fff;stroke:#263238;stroke-linecap:round;stroke-linejoin:round"></line><line x1="86.55" y1="363.88" x2="190.81" y2="363.88" style="fill:#fff;stroke:#263238;stroke-linecap:round;stroke-linejoin:round"></line><line x1="86.55" y1="355.38" x2="190.81" y2="355.38" style="fill:#fff;stroke:#263238;stroke-linecap:round;stroke-linejoin:round"></line><line x1="86.55" y1="346.88" x2="190.81" y2="346.88" style="fill:#fff;stroke:#263238;stroke-linecap:round;stroke-linejoin:round"></line><line x1="86.55" y1="338.38" x2="190.81" y2="338.38" style="fill:#fff;stroke:#263238;stroke-linecap:round;stroke-linejoin:round"></line><line x1="86.55" y1="329.88" x2="190.81" y2="329.88" style="fill:#fff;stroke:#263238;stroke-linecap:round;stroke-linejoin:round"></line><rect x="78.83" y="296.66" width="340.84" height="45.17" style="opacity:0.30000000000000004"></rect><rect x="81" y="281.44" width="336" height="45.17" style="fill:#fff;stroke:#263238;stroke-linecap:round;stroke-linejoin:round"></rect><rect x="98.94" y="281.44" width="15.47" height="45.17" style="fill:#2BB4FF;stroke:#263238;stroke-linecap:round;stroke-linejoin:round"></rect><rect x="131.73" y="281.44" width="15.47" height="45.17" style="fill:#2BB4FF;stroke:#263238;stroke-linecap:round;stroke-linejoin:round"></rect><rect x="164.53" y="281.44" width="15.47" height="45.17" style="fill:#2BB4FF;stroke:#263238;stroke-linecap:round;stroke-linejoin:round"></rect><rect x="195.72" y="281.44" width="15.47" height="45.17" style="fill:#2BB4FF;stroke:#263238;stroke-linecap:round;stroke-linejoin:round"></rect><rect x="226.91" y="281.44" width="15.47" height="45.17" style="fill:#2BB4FF;stroke:#263238;stroke-linecap:round;stroke-linejoin:round"></rect><rect x="258.11" y="281.44" width="15.47" height="45.17" style="fill:#2BB4FF;stroke:#263238;stroke-linecap:round;stroke-linejoin:round"></rect><rect x="289.3" y="281.44" width="15.47" height="45.17" style="fill:#2BB4FF;stroke:#263238;stroke-linecap:round;stroke-linejoin:round"></rect><rect x="320.49" y="281.44" width="15.47" height="45.17" style="fill:#2BB4FF;stroke:#263238;stroke-linecap:round;stroke-linejoin:round"></rect><rect x="351.69" y="281.44" width="15.47" height="45.17" style="fill:#2BB4FF;stroke:#263238;stroke-linecap:round;stroke-linejoin:round"></rect><rect x="382.88" y="281.44" width="15.47" height="45.17" style="fill:#2BB4FF;stroke:#263238;stroke-linecap:round;stroke-linejoin:round"></rect><polygon points="101.24 219 95.38 270.02 117.41 219 101.24 219" style="fill:#2BB4FF;stroke:#263238;stroke-linecap:round;stroke-linejoin:round"></polygon><polygon points="138.61 219 92.93 281.04 162.44 219 138.61 219" style="fill:#2BB4FF;stroke:#263238;stroke-linecap:round;stroke-linejoin:round"></polygon><polygon points="284.88 219 113.73 274.92 395.56 219 284.88 219" style="fill:#2BB4FF;stroke:#263238;stroke-linecap:round;stroke-linejoin:round"></polygon><polygon points="181.61 219 105.78 276.14 226.23 219 181.61 219" style="fill:#2BB4FF;stroke:#263238;stroke-linecap:round;stroke-linejoin:round"></polygon></g><g id="freepik--Posters--inject-15"><rect x="102.96" y="355.5" width="72.59" height="51.5" style="fill:#2BB4FF;stroke:#263238;stroke-linecap:round;stroke-linejoin:round;stroke-width:0.8955812737656689px"></rect><path d="M116.75,366.47c0-1.91,1-3,2.85-3s2.85,1.09,2.85,3v6.21c0,1.91-1,3-2.85,3s-2.85-1.09-2.85-3Zm1.88,6.33c0,.85.37,1.17,1,1.17s1-.32,1-1.17v-6.45c0-.85-.37-1.18-1-1.18s-1,.33-1,1.18Z" style="fill:#263238"></path><path d="M129.56,366.56v1.55c0,1.91-.92,2.95-2.8,2.95h-.88v4.48H124V363.6h2.76C128.64,363.6,129.56,364.64,129.56,366.56Zm-3.68-1.25v4h.88c.6,0,.92-.27.92-1.12v-1.79c0-.86-.32-1.13-.92-1.13Z" style="fill:#263238"></path><path d="M132.73,368.64h2.58v1.7h-2.58v3.5H136v1.7h-5.11V363.6H136v1.71h-3.24Z" style="fill:#263238"></path><path d="M139.15,366.9v8.64h-1.69V363.6h2.35l1.93,7.15V363.6h1.67v11.94h-1.93Z" style="fill:#263238"></path><path d="M145.1,363.6H147v11.94H145.1Z" style="fill:#263238"></path><path d="M150.35,366.9v8.64h-1.68V363.6H151l1.93,7.15V363.6h1.67v11.94h-1.93Z" style="fill:#263238"></path><path d="M159.12,368.89h2.63v3.79c0,1.91-.95,3-2.8,3s-2.79-1.09-2.79-3v-6.21c0-1.91,1-3,2.79-3s2.8,1.09,2.8,3v1.16H160v-1.28c0-.85-.38-1.18-1-1.18s-1,.33-1,1.18v6.45c0,.85.38,1.16,1,1.16s1-.31,1-1.16v-2.2h-.86Z" style="fill:#263238"></path><path d="M121.42,378.78c3,0,4.58,1.81,4.58,5v.62h-2.94v-.82c0-1.42-.57-1.95-1.56-1.95s-1.55.53-1.55,1.95c0,4.07,6.08,4.84,6.08,10.49,0,3.17-1.59,5-4.64,5s-4.64-1.81-4.64-5v-1.21h2.94v1.41c0,1.42.62,1.92,1.61,1.92s1.62-.5,1.62-1.92c0-4.07-6.09-4.84-6.09-10.49C116.83,380.59,118.39,378.78,121.42,378.78Z" style="fill:#263238"></path><path d="M128.12,383.76c0-3.17,1.67-5,4.72-5s4.73,1.81,4.73,5v10.29c0,3.17-1.67,5-4.73,5s-4.72-1.81-4.72-5Zm3.11,10.49c0,1.42.62,1.95,1.61,1.95s1.62-.53,1.62-1.95V383.56c0-1.42-.63-1.95-1.62-1.95s-1.61.53-1.61,1.95Z" style="fill:#263238"></path><path d="M139.88,383.76c0-3.17,1.67-5,4.73-5s4.72,1.81,4.72,5v10.29c0,3.17-1.67,5-4.72,5s-4.73-1.81-4.73-5ZM143,394.25c0,1.42.62,1.95,1.61,1.95s1.61-.53,1.61-1.95V383.56c0-1.42-.62-1.95-1.61-1.95s-1.61.53-1.61,1.95Z" style="fill:#263238"></path><path d="M154.68,384.46v14.35h-2.8V379h3.9l3.2,11.86V379h2.77v19.81h-3.2Z" style="fill:#263238"></path><rect x="321.46" y="355.5" width="72.59" height="51.5" style="fill:#2BB4FF;stroke:#263238;stroke-linecap:round;stroke-linejoin:round;stroke-width:0.8955812737656689px"></rect><path d="M335.25,366.47c0-1.91,1-3,2.85-3s2.85,1.09,2.85,3v6.21c0,1.91-1,3-2.85,3s-2.85-1.09-2.85-3Zm1.88,6.33c0,.85.37,1.17,1,1.17s1-.32,1-1.17v-6.45c0-.85-.37-1.18-1-1.18s-1,.33-1,1.18Z" style="fill:#263238"></path><path d="M348.06,366.56v1.55c0,1.91-.92,2.95-2.8,2.95h-.88v4.48H342.5V363.6h2.76C347.14,363.6,348.06,364.64,348.06,366.56Zm-3.68-1.25v4h.88c.6,0,.92-.27.92-1.12v-1.79c0-.86-.32-1.13-.92-1.13Z" style="fill:#263238"></path><path d="M351.23,368.64h2.58v1.7h-2.58v3.5h3.24v1.7h-5.11V363.6h5.11v1.71h-3.24Z" style="fill:#263238"></path><path d="M357.65,366.9v8.64H356V363.6h2.35l1.93,7.15V363.6h1.67v11.94H360Z" style="fill:#263238"></path><path d="M363.6,363.6h1.88v11.94H363.6Z" style="fill:#263238"></path><path d="M368.85,366.9v8.64h-1.68V363.6h2.35l1.93,7.15V363.6h1.67v11.94h-1.93Z" style="fill:#263238"></path><path d="M377.62,368.89h2.63v3.79c0,1.91-.95,3-2.8,3s-2.79-1.09-2.79-3v-6.21c0-1.91.95-3,2.79-3s2.8,1.09,2.8,3v1.16h-1.77v-1.28c0-.85-.38-1.18-1-1.18s-1,.33-1,1.18v6.45c0,.85.38,1.16,1,1.16s1-.31,1-1.16v-2.2h-.86Z" style="fill:#263238"></path><path d="M339.92,378.78c3,0,4.58,1.81,4.58,5v.62h-2.94v-.82c0-1.42-.57-1.95-1.56-1.95s-1.55.53-1.55,1.95c0,4.07,6.08,4.84,6.08,10.49,0,3.17-1.59,5-4.64,5s-4.64-1.81-4.64-5v-1.21h2.94v1.41c0,1.42.62,1.92,1.61,1.92s1.62-.5,1.62-1.92c0-4.07-6.09-4.84-6.09-10.49C335.33,380.59,336.89,378.78,339.92,378.78Z" style="fill:#263238"></path><path d="M346.62,383.76c0-3.17,1.67-5,4.72-5s4.73,1.81,4.73,5v10.29c0,3.17-1.67,5-4.73,5s-4.72-1.81-4.72-5Zm3.11,10.49c0,1.42.62,1.95,1.61,1.95s1.62-.53,1.62-1.95V383.56c0-1.42-.63-1.95-1.62-1.95s-1.61.53-1.61,1.95Z" style="fill:#263238"></path><path d="M358.38,383.76c0-3.17,1.67-5,4.73-5s4.72,1.81,4.72,5v10.29c0,3.17-1.67,5-4.72,5s-4.73-1.81-4.73-5Zm3.12,10.49c0,1.42.62,1.95,1.61,1.95s1.61-.53,1.61-1.95V383.56c0-1.42-.62-1.95-1.61-1.95s-1.61.53-1.61,1.95Z" style="fill:#263238"></path><path d="M373.18,384.46v14.35h-2.8V379h3.9l3.2,11.86V379h2.77v19.81h-3.2Z" style="fill:#263238"></path></g><g id="freepik--Tree--inject-15"><path d="M382.4,294.79s31.3,3.1,47.17,22.5c0,0,16.76-22.48,46.86-22a60.84,60.84,0,1,0-94-.43Z" style="fill:#2BB4FF"></path><path d="M382.4,294.79s31.3,3.1,47.17,22.5c0,0,16.76-22.48,46.86-22a60.84,60.84,0,1,0-94-.43Z" style="fill:#fff;opacity:0.5"></path><polygon points="428.53 199.9 427.47 448.8 432.76 448.8 428.53 199.9" style="fill:#828282"></polygon><path d="M430.11,311.38s10.57-19,29.59-24.83c0,0-20.08,4.75-30.11,21.13Z" style="fill:#828282"></path><path d="M429.32,258.54s11.36-20.07,30.38-25.88c0,0-20.26,5.51-30.3,21.89Z" style="fill:#828282"></path><path d="M429.63,285.11s11.05-19.7,30.07-25.51c0,0-20.08,4.76-30.11,21.14Z" style="fill:#828282"></path><path d="M428.55,271.23s-10.2-19-28.55-24.84c0,0,19.37,4.76,29.06,21.14Z" style="fill:#828282"></path><path d="M428.55,297.64s-10.2-19-28.55-24.83c0,0,19.37,4.76,29.06,21.13Z" style="fill:#828282"></path><rect x="407.83" y="444.82" width="41.97" height="9.63" style="fill:#fff;stroke:#263238;stroke-linecap:round;stroke-linejoin:round"></rect></g><g id="freepik--Floor--inject-15"><rect x="46.05" y="454.52" width="407.81" height="7.48" style="fill:#fff;stroke:#263238;stroke-linecap:round;stroke-linejoin:round"></rect><line x1="25" y1="462" x2="478" y2="462" style="fill:none;stroke:#263238;stroke-miterlimit:10"></line></g></svg>