<svg version="1.2" xmlns="http://www.w3.org/2000/svg" viewBox="0 0 576 579" width="576" height="579">
	<title>logobraille (1)-ai</title>
	<defs>
		<linearGradient id="g1" x1="26.3" y1="596.1" x2="25.7" y2="597.9" gradientUnits="userSpaceOnUse">
			<stop offset=".03" stop-color="#1d1d1b"/>
			<stop offset="1" stop-color="#35a8e0"/>
		</linearGradient>
	</defs>
	<style>
		.s0 { fill: #ffffff } 
		.s1 { fill: #2bb4ff;stroke: #2bb4ff } 
		.s2 { fill: none;stroke: #2bb4ff } 
		.s3 { fill: url(#g1) } 
		.s4 { fill: #2bb4ff } 
	</style>
	<path id="Layer copy" class="s0" d="m450.2 132.3c-21.6-21.1-51.2-30.7-81.2-26.3l-3-20.7c36.5-5.4 72.5 6.3 98.8 31.9 26.3 25.7 38.9 61.4 34.6 98l-20.8-2.5c3.5-30.1-6.8-59.4-28.4-80.4z"/>
	<g id="Calque 1">
		<g id="&lt;Group&gt;">
			<path id="&lt;Path&gt;" class="s0" d="m499 566.7h-211.7c-34.8 0-62.9-28.2-62.9-62.9v-211.8c0-34.7 28.1-62.9 62.9-62.9h211.7c34.8 0 63 28.2 63 62.9v211.8c0 34.7-28.2 62.9-63 62.9z"/>
		</g>
		<g id="&lt;Group&gt;">
			<g id="&lt;Group&gt;">
				<path id="&lt;Path&gt;" class="s1" d="m469.7 306.1c0 18.3-14.8 33.1-33.1 33.1-18.2 0-33.1-14.8-33.1-33.1 0-18.2 14.9-33 33.1-33 18.3 0 33.1 14.8 33.1 33z"/>
				<path id="&lt;Path&gt;" class="s1" d="m469.7 397.9c0 18.3-14.8 33.1-33.1 33.1-18.2 0-33.1-14.8-33.1-33.1 0-18.2 14.9-33.1 33.1-33.1 18.3 0 33.1 14.9 33.1 33.1z"/>
				<path id="&lt;Path&gt;" class="s1" d="m382.8 397.9c0 18.3-14.8 33.1-33.1 33.1-18.2 0-33-14.8-33-33.1 0-18.2 14.8-33.1 33-33.1 18.3 0 33.1 14.9 33.1 33.1z"/>
				<path id="&lt;Path&gt;" class="s1" d="m382.8 489.7c0 18.3-14.8 33.1-33.1 33.1-18.2 0-33-14.8-33-33.1 0-18.3 14.8-33.1 33-33.1 18.3 0 33.1 14.8 33.1 33.1z"/>
			</g>
		</g>
		<g id="&lt;Group&gt;">
			<path id="&lt;Path&gt;" class="s0" d="m268.1 351.5h-169.7c-46.4 0-83.9-37.6-83.9-83.9v-169.8c0-46.3 37.5-83.9 83.9-83.9h169.7c46.4 0 84 37.6 84 83.9v169.8c0 46.3-37.6 83.9-84 83.9z"/>
			<path id="&lt;Path&gt;" class="s2" d="m268.1 351.5h-169.7c-46.4 0-83.9-37.6-83.9-83.9v-169.8c0-46.3 37.5-83.9 83.9-83.9h169.7c46.4 0 84 37.6 84 83.9v169.8c0 46.3-37.6 83.9-84 83.9z"/>
		</g>
		<path id="&lt;Compound Path&gt;" fill-rule="evenodd" class="s3" d="m25.7 597.9q0 0 0 0 0 0 0 0zm-2.2-2.8q0 0 0 0 0 0 0 0z"/>
		<g id="&lt;Group&gt;">
			<path id="&lt;Path&gt;" class="s4" d="m276.3 80.8c0 15.6 0 31.2 0.1 46.7 0 1.9-0.4 2.6-2.5 2.5-19.8 0-39.7 0-59.6-0.1-1.9 0-2.4 0.5-2.4 2.5 0.1 57.4 0.1 114.8 0.1 172.2 0 2.2-0.5 2.8-2.7 2.7q-26.1-0.1-52.3 0c-1.8 0-2.3-0.3-2.3-2.2 0.1-57.4 0.1-114.9 0.1-172.3 0-2.2-0.5-2.9-2.8-2.9-19.8 0.1-39.6 0.1-59.4 0.1-2.1 0.1-2.4-0.6-2.4-2.5 0-15.5 0-31.1 0-46.7q93.1 0 186.1 0z"/>
		</g>
	</g>
	<path id="Layer" class="s0" d="m123 450.9c21.7 21.1 51.2 30.7 81.2 26.3l3 20.7c-36.4 5.3-72.4-6.3-98.8-32-26.3-25.6-38.9-61.3-34.5-97.9l20.8 2.5c-3.6 30 6.7 59.4 28.3 80.4z"/>
</svg>