<?xml version="1.0" encoding="UTF-8"?>
<svg width="180px" height="180px" viewBox="0 0 180 180" version="1.1" xmlns="http://www.w3.org/2000/svg" xmlns:xlink="http://www.w3.org/1999/xlink">
    <!-- Generator: Sketch 61 (89581) - https://sketch.com -->
    <title>Overrides/Languages/en-US</title>
    <desc>Created with Sketch.</desc>
    <defs>
        <circle id="path-1" cx="90" cy="90" r="90"></circle>
    </defs>
    <g id="Overrides/Languages/en-US" stroke="none" stroke-width="1" fill="none" fill-rule="evenodd">
        <g id="en-US">
            <mask id="mask-2" fill="white">
                <use xlink:href="#path-1"></use>
            </mask>
            <use id="Mask" fill="#D62626" xlink:href="#path-1"></use>
            <g id="Shapes" mask="url(#mask-2)">
                <g transform="translate(-3.000000, -16.000000)">
                    <g id="Stripes" stroke-width="1" fill="none" fill-rule="evenodd" transform="translate(3.000000, 28.857143)">
                        <rect id="Rectangle-183" fill="#FFFFFF" x="0" y="0" width="180" height="12.8571429"></rect>
                        <rect id="Rectangle-183" fill="#FFFFFF" x="0" y="25.7142857" width="180" height="12.8571429"></rect>
                        <rect id="Rectangle-183" fill="#FFFFFF" x="0" y="51.4285714" width="180" height="12.8571429"></rect>
                        <rect id="Rectangle-183" fill="#FFFFFF" x="0" y="77.1428571" width="180" height="12.8571429"></rect>
                        <rect id="Rectangle-183" fill="#FFFFFF" x="0" y="102.857143" width="180" height="12.8571429"></rect>
                        <rect id="Rectangle-183" fill="#FFFFFF" x="0" y="128.571429" width="180" height="12.8571429"></rect>
                        <rect id="Rectangle-183" fill="#FFFFFF" x="0" y="154.285714" width="180" height="12.8571429"></rect>
                    </g>
                    <g id="Overrides/Options/Outlines/en-US" fill="none" transform="translate(3.000000, 16.000000)" stroke-width="3">
                        <circle id="Outline" stroke="#D62626" cx="90" cy="90" r="88.5"></circle>
                    </g>
                    <rect id="Rectangle-183" fill="#004D99" fill-rule="evenodd" x="3" y="16" width="90" height="90"></rect>
                    <g id="Stars" stroke-width="1" fill="none" fill-rule="evenodd" transform="translate(0.428571, 0.571429)">
                        <polygon id="Star-1" fill="#FFFFFF" points="4.5 99.3214286 1.85496636 100.712005 2.36012284 97.7667168 0.220245677 95.6808521 3.17748318 95.2511403 4.5 92.5714286 5.82251682 95.2511403 8.77975432 95.6808521 6.63987716 97.7667168 7.14503364 100.712005"></polygon>
                        <polygon id="Star-1" fill="#FFFFFF" points="19.9285714 99.3214286 17.2835378 100.712005 17.7886943 97.7667168 15.6488171 95.6808521 18.6060546 95.2511403 19.9285714 92.5714286 21.2510882 95.2511403 24.2083258 95.6808521 22.0684486 97.7667168 22.5736051 100.712005"></polygon>
                        <polygon id="Star-1" fill="#FFFFFF" points="35.3571429 99.3214286 32.7121092 100.712005 33.2172657 97.7667168 31.0773885 95.6808521 34.034626 95.2511403 35.3571429 92.5714286 36.6796597 95.2511403 39.6368972 95.6808521 37.49702 97.7667168 38.0021765 100.712005"></polygon>
                        <polygon id="Star-1" fill="#FFFFFF" points="50.7857143 99.3214286 48.1406807 100.712005 48.6458371 97.7667168 46.50596 95.6808521 49.4631975 95.2511403 50.7857143 92.5714286 52.1082311 95.2511403 55.0654686 95.6808521 52.9255914 97.7667168 53.4307479 100.712005"></polygon>
                        <polygon id="Star-1" fill="#FFFFFF" points="66.2142857 99.3214286 63.5692521 100.712005 64.0744086 97.7667168 61.9345314 95.6808521 64.8917689 95.2511403 66.2142857 92.5714286 67.5368025 95.2511403 70.49404 95.6808521 68.3541629 97.7667168 68.8593193 100.712005"></polygon>
                        <polygon id="Star-1" fill="#FFFFFF" points="81.6428571 99.3214286 78.9978235 100.712005 79.50298 97.7667168 77.3631028 95.6808521 80.3203403 95.2511403 81.6428571 92.5714286 82.965374 95.2511403 85.9226115 95.6808521 83.7827343 97.7667168 84.2878908 100.712005"></polygon>
                        <polygon id="Star-1" fill="#FFFFFF" points="12.2142857 89.0357143 9.56925208 90.4262908 10.0744086 87.4810025 7.93453139 85.3951378 10.8917689 84.965426 12.2142857 82.2857143 13.5368025 84.965426 16.49404 85.3951378 14.3541629 87.4810025 14.8593193 90.4262908"></polygon>
                        <polygon id="Star-1" fill="#FFFFFF" points="27.6428571 89.0357143 24.9978235 90.4262908 25.50298 87.4810025 23.3631028 85.3951378 26.3203403 84.965426 27.6428571 82.2857143 28.965374 84.965426 31.9226115 85.3951378 29.7827343 87.4810025 30.2878908 90.4262908"></polygon>
                        <polygon id="Star-1" fill="#FFFFFF" points="43.0714286 89.0357143 40.4263949 90.4262908 40.9315514 87.4810025 38.7916742 85.3951378 41.7489118 84.965426 43.0714286 82.2857143 44.3939454 84.965426 47.3511829 85.3951378 45.2113057 87.4810025 45.7164622 90.4262908"></polygon>
                        <polygon id="Star-1" fill="#FFFFFF" points="58.5 89.0357143 55.8549664 90.4262908 56.3601228 87.4810025 54.2202457 85.3951378 57.1774832 84.965426 58.5 82.2857143 59.8225168 84.965426 62.7797543 85.3951378 60.6398772 87.4810025 61.1450336 90.4262908"></polygon>
                        <polygon id="Star-1" fill="#FFFFFF" points="73.9285714 89.0357143 71.2835378 90.4262908 71.7886943 87.4810025 69.6488171 85.3951378 72.6060546 84.965426 73.9285714 82.2857143 75.2510882 84.965426 78.2083258 85.3951378 76.0684486 87.4810025 76.5736051 90.4262908"></polygon>
                        <polygon id="Star-1" fill="#FFFFFF" points="4.5 78.75 1.85496636 80.1405765 2.36012284 77.1952882 0.220245677 75.1094235 3.17748318 74.6797118 4.5 72 5.82251682 74.6797118 8.77975432 75.1094235 6.63987716 77.1952882 7.14503364 80.1405765"></polygon>
                        <polygon id="Star-1" fill="#FFFFFF" points="19.9285714 78.75 17.2835378 80.1405765 17.7886943 77.1952882 15.6488171 75.1094235 18.6060546 74.6797118 19.9285714 72 21.2510882 74.6797118 24.2083258 75.1094235 22.0684486 77.1952882 22.5736051 80.1405765"></polygon>
                        <polygon id="Star-1" fill="#FFFFFF" points="35.3571429 78.75 32.7121092 80.1405765 33.2172657 77.1952882 31.0773885 75.1094235 34.034626 74.6797118 35.3571429 72 36.6796597 74.6797118 39.6368972 75.1094235 37.49702 77.1952882 38.0021765 80.1405765"></polygon>
                        <polygon id="Star-1" fill="#FFFFFF" points="50.7857143 78.75 48.1406807 80.1405765 48.6458371 77.1952882 46.50596 75.1094235 49.4631975 74.6797118 50.7857143 72 52.1082311 74.6797118 55.0654686 75.1094235 52.9255914 77.1952882 53.4307479 80.1405765"></polygon>
                        <polygon id="Star-1" fill="#FFFFFF" points="66.2142857 78.75 63.5692521 80.1405765 64.0744086 77.1952882 61.9345314 75.1094235 64.8917689 74.6797118 66.2142857 72 67.5368025 74.6797118 70.49404 75.1094235 68.3541629 77.1952882 68.8593193 80.1405765"></polygon>
                        <polygon id="Star-1" fill="#FFFFFF" points="81.6428571 78.75 78.9978235 80.1405765 79.50298 77.1952882 77.3631028 75.1094235 80.3203403 74.6797118 81.6428571 72 82.965374 74.6797118 85.9226115 75.1094235 83.7827343 77.1952882 84.2878908 80.1405765"></polygon>
                        <polygon id="Star-1" fill="#FFFFFF" points="12.2142857 68.4642857 9.56925208 69.8548622 10.0744086 66.909574 7.93453139 64.8237092 10.8917689 64.3939975 12.2142857 61.7142857 13.5368025 64.3939975 16.49404 64.8237092 14.3541629 66.909574 14.8593193 69.8548622"></polygon>
                        <polygon id="Star-1" fill="#FFFFFF" points="27.6428571 68.4642857 24.9978235 69.8548622 25.50298 66.909574 23.3631028 64.8237092 26.3203403 64.3939975 27.6428571 61.7142857 28.965374 64.3939975 31.9226115 64.8237092 29.7827343 66.909574 30.2878908 69.8548622"></polygon>
                        <polygon id="Star-1" fill="#FFFFFF" points="43.0714286 68.4642857 40.4263949 69.8548622 40.9315514 66.909574 38.7916742 64.8237092 41.7489118 64.3939975 43.0714286 61.7142857 44.3939454 64.3939975 47.3511829 64.8237092 45.2113057 66.909574 45.7164622 69.8548622"></polygon>
                        <polygon id="Star-1" fill="#FFFFFF" points="58.5 68.4642857 55.8549664 69.8548622 56.3601228 66.909574 54.2202457 64.8237092 57.1774832 64.3939975 58.5 61.7142857 59.8225168 64.3939975 62.7797543 64.8237092 60.6398772 66.909574 61.1450336 69.8548622"></polygon>
                        <polygon id="Star-1" fill="#FFFFFF" points="73.9285714 68.4642857 71.2835378 69.8548622 71.7886943 66.909574 69.6488171 64.8237092 72.6060546 64.3939975 73.9285714 61.7142857 75.2510882 64.3939975 78.2083258 64.8237092 76.0684486 66.909574 76.5736051 69.8548622"></polygon>
                        <polygon id="Star-1" fill="#FFFFFF" points="4.5 58.1785714 1.85496636 59.5691479 2.36012284 56.6238597 0.220245677 54.537995 3.17748318 54.1082832 4.5 51.4285714 5.82251682 54.1082832 8.77975432 54.537995 6.63987716 56.6238597 7.14503364 59.5691479"></polygon>
                        <polygon id="Star-1" fill="#FFFFFF" points="19.9285714 58.1785714 17.2835378 59.5691479 17.7886943 56.6238597 15.6488171 54.537995 18.6060546 54.1082832 19.9285714 51.4285714 21.2510882 54.1082832 24.2083258 54.537995 22.0684486 56.6238597 22.5736051 59.5691479"></polygon>
                        <polygon id="Star-1" fill="#FFFFFF" points="35.3571429 58.1785714 32.7121092 59.5691479 33.2172657 56.6238597 31.0773885 54.537995 34.034626 54.1082832 35.3571429 51.4285714 36.6796597 54.1082832 39.6368972 54.537995 37.49702 56.6238597 38.0021765 59.5691479"></polygon>
                        <polygon id="Star-1" fill="#FFFFFF" points="50.7857143 58.1785714 48.1406807 59.5691479 48.6458371 56.6238597 46.50596 54.537995 49.4631975 54.1082832 50.7857143 51.4285714 52.1082311 54.1082832 55.0654686 54.537995 52.9255914 56.6238597 53.4307479 59.5691479"></polygon>
                        <polygon id="Star-1" fill="#FFFFFF" points="66.2142857 58.1785714 63.5692521 59.5691479 64.0744086 56.6238597 61.9345314 54.537995 64.8917689 54.1082832 66.2142857 51.4285714 67.5368025 54.1082832 70.49404 54.537995 68.3541629 56.6238597 68.8593193 59.5691479"></polygon>
                        <polygon id="Star-1" fill="#FFFFFF" points="81.6428571 58.1785714 78.9978235 59.5691479 79.50298 56.6238597 77.3631028 54.537995 80.3203403 54.1082832 81.6428571 51.4285714 82.965374 54.1082832 85.9226115 54.537995 83.7827343 56.6238597 84.2878908 59.5691479"></polygon>
                        <polygon id="Star-1" fill="#FFFFFF" points="12.2142857 47.8928571 9.56925208 49.2834336 10.0744086 46.3381454 7.93453139 44.2522807 10.8917689 43.8225689 12.2142857 41.1428571 13.5368025 43.8225689 16.49404 44.2522807 14.3541629 46.3381454 14.8593193 49.2834336"></polygon>
                        <polygon id="Star-1" fill="#FFFFFF" points="27.6428571 47.8928571 24.9978235 49.2834336 25.50298 46.3381454 23.3631028 44.2522807 26.3203403 43.8225689 27.6428571 41.1428571 28.965374 43.8225689 31.9226115 44.2522807 29.7827343 46.3381454 30.2878908 49.2834336"></polygon>
                        <polygon id="Star-1" fill="#FFFFFF" points="43.0714286 47.8928571 40.4263949 49.2834336 40.9315514 46.3381454 38.7916742 44.2522807 41.7489118 43.8225689 43.0714286 41.1428571 44.3939454 43.8225689 47.3511829 44.2522807 45.2113057 46.3381454 45.7164622 49.2834336"></polygon>
                        <polygon id="Star-1" fill="#FFFFFF" points="58.5 47.8928571 55.8549664 49.2834336 56.3601228 46.3381454 54.2202457 44.2522807 57.1774832 43.8225689 58.5 41.1428571 59.8225168 43.8225689 62.7797543 44.2522807 60.6398772 46.3381454 61.1450336 49.2834336"></polygon>
                        <polygon id="Star-1" fill="#FFFFFF" points="73.9285714 47.8928571 71.2835378 49.2834336 71.7886943 46.3381454 69.6488171 44.2522807 72.6060546 43.8225689 73.9285714 41.1428571 75.2510882 43.8225689 78.2083258 44.2522807 76.0684486 46.3381454 76.5736051 49.2834336"></polygon>
                        <polygon id="Star-1" fill="#FFFFFF" points="4.5 37.6071429 1.85496636 38.9977193 2.36012284 36.0524311 0.220245677 33.9665664 3.17748318 33.5368546 4.5 30.8571429 5.82251682 33.5368546 8.77975432 33.9665664 6.63987716 36.0524311 7.14503364 38.9977193"></polygon>
                        <polygon id="Star-1" fill="#FFFFFF" points="19.9285714 37.6071429 17.2835378 38.9977193 17.7886943 36.0524311 15.6488171 33.9665664 18.6060546 33.5368546 19.9285714 30.8571429 21.2510882 33.5368546 24.2083258 33.9665664 22.0684486 36.0524311 22.5736051 38.9977193"></polygon>
                        <polygon id="Star-1" fill="#FFFFFF" points="35.3571429 37.6071429 32.7121092 38.9977193 33.2172657 36.0524311 31.0773885 33.9665664 34.034626 33.5368546 35.3571429 30.8571429 36.6796597 33.5368546 39.6368972 33.9665664 37.49702 36.0524311 38.0021765 38.9977193"></polygon>
                        <polygon id="Star-1" fill="#FFFFFF" points="50.7857143 37.6071429 48.1406807 38.9977193 48.6458371 36.0524311 46.50596 33.9665664 49.4631975 33.5368546 50.7857143 30.8571429 52.1082311 33.5368546 55.0654686 33.9665664 52.9255914 36.0524311 53.4307479 38.9977193"></polygon>
                        <polygon id="Star-1" fill="#FFFFFF" points="66.2142857 37.6071429 63.5692521 38.9977193 64.0744086 36.0524311 61.9345314 33.9665664 64.8917689 33.5368546 66.2142857 30.8571429 67.5368025 33.5368546 70.49404 33.9665664 68.3541629 36.0524311 68.8593193 38.9977193"></polygon>
                        <polygon id="Star-1" fill="#FFFFFF" points="81.6428571 37.6071429 78.9978235 38.9977193 79.50298 36.0524311 77.3631028 33.9665664 80.3203403 33.5368546 81.6428571 30.8571429 82.965374 33.5368546 85.9226115 33.9665664 83.7827343 36.0524311 84.2878908 38.9977193"></polygon>
                        <polygon id="Star-1" fill="#FFFFFF" points="12.2142857 27.3214286 9.56925208 28.712005 10.0744086 25.7667168 7.93453139 23.6808521 10.8917689 23.2511403 12.2142857 20.5714286 13.5368025 23.2511403 16.49404 23.6808521 14.3541629 25.7667168 14.8593193 28.712005"></polygon>
                        <polygon id="Star-1" fill="#FFFFFF" points="27.6428571 27.3214286 24.9978235 28.712005 25.50298 25.7667168 23.3631028 23.6808521 26.3203403 23.2511403 27.6428571 20.5714286 28.965374 23.2511403 31.9226115 23.6808521 29.7827343 25.7667168 30.2878908 28.712005"></polygon>
                        <polygon id="Star-1" fill="#FFFFFF" points="43.0714286 27.3214286 40.4263949 28.712005 40.9315514 25.7667168 38.7916742 23.6808521 41.7489118 23.2511403 43.0714286 20.5714286 44.3939454 23.2511403 47.3511829 23.6808521 45.2113057 25.7667168 45.7164622 28.712005"></polygon>
                        <polygon id="Star-1" fill="#FFFFFF" points="58.5 27.3214286 55.8549664 28.712005 56.3601228 25.7667168 54.2202457 23.6808521 57.1774832 23.2511403 58.5 20.5714286 59.8225168 23.2511403 62.7797543 23.6808521 60.6398772 25.7667168 61.1450336 28.712005"></polygon>
                        <polygon id="Star-1" fill="#FFFFFF" points="73.9285714 27.3214286 71.2835378 28.712005 71.7886943 25.7667168 69.6488171 23.6808521 72.6060546 23.2511403 73.9285714 20.5714286 75.2510882 23.2511403 78.2083258 23.6808521 76.0684486 25.7667168 76.5736051 28.712005"></polygon>
                        <polygon id="Star-1" fill="#FFFFFF" points="4.5 17.0357143 1.85496636 18.4262908 2.36012284 15.4810025 0.220245677 13.3951378 3.17748318 12.965426 4.5 10.2857143 5.82251682 12.965426 8.77975432 13.3951378 6.63987716 15.4810025 7.14503364 18.4262908"></polygon>
                        <polygon id="Star-1" fill="#FFFFFF" points="19.9285714 17.0357143 17.2835378 18.4262908 17.7886943 15.4810025 15.6488171 13.3951378 18.6060546 12.965426 19.9285714 10.2857143 21.2510882 12.965426 24.2083258 13.3951378 22.0684486 15.4810025 22.5736051 18.4262908"></polygon>
                        <polygon id="Star-1" fill="#FFFFFF" points="35.3571429 17.0357143 32.7121092 18.4262908 33.2172657 15.4810025 31.0773885 13.3951378 34.034626 12.965426 35.3571429 10.2857143 36.6796597 12.965426 39.6368972 13.3951378 37.49702 15.4810025 38.0021765 18.4262908"></polygon>
                        <polygon id="Star-1" fill="#FFFFFF" points="50.7857143 17.0357143 48.1406807 18.4262908 48.6458371 15.4810025 46.50596 13.3951378 49.4631975 12.965426 50.7857143 10.2857143 52.1082311 12.965426 55.0654686 13.3951378 52.9255914 15.4810025 53.4307479 18.4262908"></polygon>
                        <polygon id="Star-1" fill="#FFFFFF" points="66.2142857 17.0357143 63.5692521 18.4262908 64.0744086 15.4810025 61.9345314 13.3951378 64.8917689 12.965426 66.2142857 10.2857143 67.5368025 12.965426 70.49404 13.3951378 68.3541629 15.4810025 68.8593193 18.4262908"></polygon>
                        <polygon id="Star-1" fill="#FFFFFF" points="81.6428571 17.0357143 78.9978235 18.4262908 79.50298 15.4810025 77.3631028 13.3951378 80.3203403 12.965426 81.6428571 10.2857143 82.965374 12.965426 85.9226115 13.3951378 83.7827343 15.4810025 84.2878908 18.4262908"></polygon>
                    </g>
                </g>
            </g>
        </g>
    </g>
</svg>